<?xml version="1.0" standalone="no"?>
<!DOCTYPE svg PUBLIC "-//W3C//DTD SVG 20010904//EN"
 "http://www.w3.org/TR/2001/REC-SVG-20010904/DTD/svg10.dtd">
<svg version="1.0" xmlns="http://www.w3.org/2000/svg"
 width="700.000000pt" height="700.000000pt" viewBox="0 0 700.000000 700.000000"
 preserveAspectRatio="xMidYMid meet">
<metadata>
Created by potrace 1.11, written by Peter Selinger 2001-2013
</metadata>
<g transform="translate(0.000000,700.000000) scale(0.100000,-0.100000)"
fill="#000000" stroke="none">
<path d="M1405 6123 c-153 -22 -255 -71 -356 -172 -55 -56 -84 -96 -111 -151
-61 -127 -62 -137 -63 -657 l0 -473 95 0 c135 -1 5401 -1 5426 -1 l21 1 -2
483 c-1 464 -2 485 -23 552 -62 202 -235 364 -433 406 -40 9 -642 12 -2294 13
-1232 1 -2249 0 -2260 -1z"/>
<path d="M877 4075 c-2 -5 -3 -611 -2 -1345 1 -1044 4 -1348 14 -1395 47 -218
228 -395 462 -451 25 -6 956 -13 974 -7 7 2 9 542 9 1596 -1 875 -2 1597 -3
1602 -1 7 -250 10 -726 10 -474 0 -726 -3 -728 -10z"/>
<path d="M4968 4079 c-10 -7 -15 -3179 -5 -3196 3 -5 221 -8 484 -7 l478 1 82
27 c91 30 179 84 244 151 50 52 114 152 130 204 6 20 15 52 21 71 15 50 19
2750 4 2751 -52 5 -1430 3 -1438 -2z"/>
<path d="M2918 4066 c-8 -24 -1 -3176 6 -3183 8 -9 1445 -11 1447 -3 1 3 2
723 3 1601 l1 1596 -727 0 c-523 0 -728 -3 -730 -11z"/>
</g>
</svg>
